<svg xmlns="http://www.w3.org/2000/svg" width="40" height="40" viewBox="0 0 40 40" fill="none">
  <path d="M37.9009 12.8C38 14.7897 38 17.1568 38 20C38 28.4852 38 32.7279 35.364 35.364C32.7279 38 28.4852 38 20 38C11.5147 38 7.27209 38 4.63603 35.364C2 32.7279 2 28.4852 2 20C2 11.5147 2 7.27209 4.63603 4.63603C7.27209 2 11.5147 2 20 2C22.031 2 23.819 2 25.4 2.03615" fill="#FEFEFE"/>
  <path d="M37.9009 12.8C38 14.7897 38 17.1568 38 20C38 28.4852 38 32.7279 35.364 35.364C32.7279 38 28.4852 38 20 38C11.5147 38 7.27209 38 4.63603 35.364C2 32.7279 2 28.4852 2 20C2 11.5147 2 7.27209 4.63603 4.63603C7.27209 2 11.5147 2 20 2C22.031 2 23.819 2 25.4 2.03615" stroke="#001019" stroke-width="2.84211" stroke-linecap="round"/>
  <path d="M12.4209 19.0523C12.4209 19.0523 15.263 19.0523 19.0525 25.6839C19.0525 25.6839 28.6376 8.31547 37.9998 4.8418" stroke="#001019" stroke-width="2.84211" stroke-linecap="round" stroke-linejoin="round"/>
</svg>