<svg xmlns="http://www.w3.org/2000/svg" width="58" height="49" viewBox="0 0 58 49" fill="none">
  <path d="M28.7609 3.19565L31.501 1.55138C30.9237 0.588854 29.8832 0 28.7609 0C27.6386 0 26.5981 0.588854 26.0207 1.55138L28.7609 3.19565ZM54.3261 45.8043V49C55.4774 49 56.5396 48.3809 57.1067 47.3787C57.6743 46.377 57.6585 45.1473 57.0663 44.1601L54.3261 45.8043ZM3.19566 45.8043L0.455406 44.1601C-0.13694 45.1473 -0.15245 46.377 0.4148 47.3787C0.982049 48.3809 2.04437 49 3.19566 49V45.8043ZM26.0207 4.83992L51.5859 47.4486L57.0663 44.1601L31.501 1.55138L26.0207 4.83992ZM54.3261 42.6087H3.19566V49H54.3261V42.6087ZM5.93591 47.4486L31.501 4.83992L26.0207 1.55138L0.455406 44.1601L5.93591 47.4486Z" fill="#001019"/>
</svg>
