<svg xmlns="http://www.w3.org/2000/svg" width="22" height="16" viewBox="0 0 22 16" fill="none">
  <g opacity="0.7">
    <g filter="url(#filter0_i_201_359)">
      <path d="M9.85529 14.532C9.07276 15.3372 7.78092 15.3406 6.99419 14.5395L0.9876 8.42374C0.439309 7.86548 0.439309 6.97089 0.987601 6.41262C1.54562 5.84446 2.45955 5.83933 3.02392 6.40119L7.00157 10.3612C7.78811 11.1442 9.06183 11.137 9.83952 10.3452L18.9794 1.03919C19.54 0.468315 20.46 0.468315 21.0206 1.03919C21.5652 1.59362 21.5675 2.48137 21.0259 3.03865L9.85529 14.532Z" fill="#FEFEFE"/>
    </g>
    <path d="M9.67601 14.3578C8.9913 15.0623 7.86094 15.0653 7.17255 14.3644L1.16596 8.24856C0.713188 7.78756 0.713188 7.04881 1.16596 6.5878C1.62677 6.11862 2.38149 6.11438 2.84754 6.57835L6.82518 10.5383C7.71005 11.4193 9.14298 11.4112 10.0179 10.5204L19.1577 1.21437C19.6204 0.743256 20.3796 0.743256 20.8423 1.21437C21.2916 1.67191 21.2936 2.40452 20.8466 2.86441L9.67601 14.3578Z" stroke="#FEFEFE" stroke-width="0.5"/>
  </g>
  <defs>
    <filter id="filter0_i_201_359" x="0.576355" y="0.611328" width="20.8542" height="15.5264" filterUnits="userSpaceOnUse" color-interpolation-filters="sRGB">
      <feFlood flood-opacity="0" result="BackgroundImageFix"/>
      <feBlend mode="normal" in="SourceGraphic" in2="BackgroundImageFix" result="shape"/>
      <feColorMatrix in="SourceAlpha" type="matrix" values="0 0 0 0 0 0 0 0 0 0 0 0 0 0 0 0 0 0 127 0" result="hardAlpha"/>
      <feOffset dy="1"/>
      <feGaussianBlur stdDeviation="1"/>
      <feComposite in2="hardAlpha" operator="arithmetic" k2="-1" k3="1"/>
      <feColorMatrix type="matrix" values="0 0 0 0 0.701961 0 0 0 0 0.701961 0 0 0 0 0.701961 0 0 0 1 0"/>
      <feBlend mode="normal" in2="shape" result="effect1_innerShadow_201_359"/>
    </filter>
  </defs>
</svg>