<svg xmlns="http://www.w3.org/2000/svg" width="20" height="18" viewBox="0 0 20 23" fill="none">
  <path opacity="0.3" d="M3.36818 2.37906C2.81589 2.37906 2.36818 2.82678 2.36818 3.37906V19.6209C2.36818 20.1732 2.81589 20.6209 3.36818 20.6209H12.6839C13.2362 20.6209 13.6839 21.0687 13.6839 21.6209V22C13.6839 22.5523 13.2362 23 12.6839 23H1C0.447716 23 0 22.5523 0 22V1C0 0.447715 0.447715 0 1 0H12.6839C13.2362 0 13.6839 0.447715 13.6839 1V1.37906C13.6839 1.93135 13.2362 2.37906 12.6839 2.37906H3.36818ZM13.6017 18.2706C13.2156 18.6871 12.5604 18.6988 12.1597 18.2962L11.7547 17.8894C11.3663 17.4992 11.3663 16.8685 11.7547 16.4784L13.566 14.6588C14.1937 14.0282 13.747 12.9533 12.8572 12.9533H6.53338C5.98109 12.9533 5.53338 12.5056 5.53338 11.9533V11.3097C5.53338 10.7575 5.98109 10.3097 6.53338 10.3097H13.0173C13.9223 10.3097 14.3618 9.20353 13.7037 8.58245L11.7994 6.78551C11.3901 6.39929 11.38 5.75155 11.777 5.35273L12.1853 4.94255C12.5762 4.54986 13.2119 4.54986 13.6028 4.94255L19.3223 10.6883C19.7009 11.0687 19.7117 11.6801 19.3469 12.0737L13.6017 18.2706Z" fill="black"/>
</svg>