<svg xmlns="http://www.w3.org/2000/svg" width="16" height="17" viewBox="0 0 16 17" fill="none">
  <path d="M2.15012 7.1334C2.15012 4.24208 2.15012 2.79643 3.04833 1.89821C3.94655 1 5.3922 1 8.28351 1H9.43353C12.3248 1 13.7705 1 14.6687 1.89821C15.5669 2.79643 15.5669 4.24208 15.5669 7.1334V10.2001C15.5669 13.0914 15.5669 14.5371 14.6687 15.4353C13.7705 16.3335 12.3248 16.3335 9.43353 16.3335H8.28351C5.3922 16.3335 3.94655 16.3335 3.04833 15.4353C2.15012 14.5371 2.15012 13.0914 2.15012 10.2001V7.1334Z" stroke="#001019" stroke-width="0.862509"/>
  <path d="M6.59677 8.64698C6.2697 8.07665 6.11178 7.61097 6.01656 7.13885C5.87572 6.44073 6.19801 5.75873 6.73193 5.32357C6.95763 5.13965 7.2163 5.20249 7.3497 5.44188L7.65093 5.98233C7.88975 6.4107 8.00912 6.6249 7.98543 6.85198C7.96174 7.07905 7.80074 7.26397 7.47873 7.63389L6.59677 8.64698ZM6.59677 8.64698C7.25878 9.80128 8.2977 10.8408 9.45338 11.5036M9.45338 11.5036C10.0237 11.8307 10.4894 11.9886 10.9615 12.0838C11.6596 12.2247 12.3416 11.9024 12.7768 11.3684C12.9607 11.1427 12.8979 10.8841 12.6585 10.7507L12.118 10.4494C11.6896 10.2106 11.4755 10.0912 11.2484 10.1149C11.0213 10.1386 10.8364 10.2996 10.4665 10.6216L9.45338 11.5036Z" stroke="#001019" stroke-width="0.862509" stroke-linejoin="round"/>
  <path d="M2.91672 4.06641H1.00003M2.91672 8.66645H1.00003M2.91672 13.2665H1.00003" stroke="#001019" stroke-width="0.862509" stroke-linecap="round" stroke-linejoin="round"/>
</svg>