<svg xmlns="http://www.w3.org/2000/svg" width="35" height="21" viewBox="0 0 35 21" fill="none">
  <path d="M31.5 15C32.8807 15 34 13.8807 34 12.5C34 11.1193 32.8807 10 31.5 10C30.1193 10 29 11.1193 29 12.5C29 13.8807 30.1193 15 31.5 15Z" stroke="#141B34" stroke-width="1.5"/>
  <path d="M16.5 15C17.8807 15 19 13.8807 19 12.5C19 11.1193 17.8807 10 16.5 10C15.1193 10 14 11.1193 14 12.5C14 13.8807 15.1193 15 16.5 15Z" stroke="#141B34" stroke-width="1.5"/>
  <path d="M32.2348 3.86957C33.5163 5.42897 33.9615 6.9117 33.9994 7.6957C33.3294 7.3893 32.5771 7.2174 31.7821 7.2174C29.3369 7.2174 27.1419 8.8433 26.6177 11.0092C26.4924 11.527 26.4298 11.7859 26.2937 11.8929C26.1577 12 25.9382 12 25.4994 12H22.6206C22.1784 12 21.9573 12 21.8207 11.8915C21.6841 11.7829 21.6243 11.5249 21.5047 11.0088C21.0089 8.8708 18.9967 7.0124 16.902 7.1698C16.6909 7.1857 16.5854 7.1936 16.5129 7.1775C16.4405 7.1613 16.3676 7.1202 16.2219 7.0378C15.801 6.8001 15.3706 6.5744 14.9579 6.3227C14.383 5.97198 14.0232 5.35549 14.0005 4.68241C13.9877 4.29933 14.208 3.91865 14.653 4.02338L21.0737 5.53435C21.556 5.64785 21.7972 5.70461 22.0044 5.66597C22.2116 5.62734 22.4656 5.4536 22.9737 5.10614C24.262 4.22518 26.3037 3.39305 28.339 4.12822C28.8961 4.32947 29.1747 4.4301 29.3334 4.43513C29.4921 4.44016 29.7247 4.37247 30.1899 4.23707C30.9431 4.01785 31.6521 3.90409 32.2348 3.86957ZM32.2348 3.86957C31.4316 2.89211 30.2997 1.88452 28.7336 1" stroke="#141B34" stroke-width="1.5" stroke-linecap="round" stroke-linejoin="round"/>
  <path d="M7.5 7L2.5 10V18L8 20L14 17.5V9.5L7.5 7Z" fill="white"/>
  <path d="M8.18367 20.0612C7.64934 20.0612 7.13891 19.8384 6.11798 19.3928C4.92642 18.8727 4.01423 18.4745 3.38137 18.102H1M8.18367 20.0612C8.71801 20.0612 9.22844 19.8384 10.2494 19.3928C12.7906 18.2835 14.0612 17.7289 14.0612 16.7959V9.93878M8.18367 20.0612V12.8776M2.30612 9.93878V11.898" stroke="#141B34" stroke-width="0.979592" stroke-linecap="round" stroke-linejoin="round"/>
  <path d="M5.7843 12.0229L3.87658 11.0998C2.82963 10.5932 2.30615 10.3399 2.30615 9.93878C2.30615 9.53765 2.82963 9.28434 3.87658 8.77773L5.7843 7.85461C6.9617 7.28487 7.55043 7 8.1837 7C8.81698 7 9.40571 7.28487 10.5831 7.85461L12.4908 8.77773C13.5378 9.28434 14.0613 9.53765 14.0613 9.93878C14.0613 10.3399 13.5378 10.5932 12.4908 11.0998L10.5831 12.0229C9.40571 12.5927 8.81698 12.8776 8.1837 12.8776C7.55043 12.8776 6.9617 12.5927 5.7843 12.0229Z" stroke="#141B34" stroke-width="0.979592" stroke-linecap="round" stroke-linejoin="round"/>
  <path d="M11.5381 8.31631L4.83154 11.5615" stroke="#141B34" stroke-width="0.979592" stroke-linecap="round" stroke-linejoin="round"/>
  <path d="M1 14.1837H2.95918" stroke="#141B34" stroke-width="0.979592" stroke-linecap="round" stroke-linejoin="round"/>
  <path d="M1 16.1429H2.95918" stroke="#141B34" stroke-width="0.979592" stroke-linecap="round" stroke-linejoin="round"/>
</svg>