<svg xmlns="http://www.w3.org/2000/svg" width="22" height="18" viewBox="0 0 22 18" fill="none">
  <path d="M1 9C1 5.46252 1 3.69377 2.0528 2.5129C2.22119 2.32403 2.40678 2.14935 2.60746 1.99087C3.86213 1 5.74142 1 9.5 1H12.5C16.2586 1 18.1379 1 19.3925 1.99087C19.5932 2.14935 19.7788 2.32403 19.9472 2.5129C21 3.69377 21 5.46252 21 9C21 12.5375 21 14.3062 19.9472 15.4871C19.7788 15.676 19.5932 15.8506 19.3925 16.0091C18.1379 17 16.2586 17 12.5 17H9.5C5.74142 17 3.86213 17 2.60746 16.0091C2.40678 15.8506 2.22119 15.676 2.0528 15.4871C1 14.3062 1 12.5375 1 9Z" stroke="#141B34" stroke-width="1.5" stroke-linecap="round" stroke-linejoin="round"/>
  <path d="M11.413 5.75C11.413 5.3358 11.0773 5 10.663 5C10.2488 5 9.913 5.3358 9.913 5.75H11.413ZM9.913 12.75C9.913 13.1642 10.2488 13.5 10.663 13.5C11.0773 13.5 11.413 13.1642 11.413 12.75H9.913ZM11.7357 7.7039C11.9863 8.0336 12.4568 8.0977 12.7866 7.8471C13.1164 7.5964 13.1805 7.1259 12.9298 6.7961L11.7357 7.7039ZM9.4972 10.8522C9.1885 10.576 8.7144 10.6023 8.43816 10.9109C8.16193 11.2196 8.18821 11.6937 8.49687 11.97L9.4972 10.8522ZM10.663 8.3993C10.0157 8.3993 9.721 8.2937 9.6038 8.2147C9.55 8.1785 9.5 8.1374 9.5 7.9395H8C8 8.521 8.21084 9.0849 8.7658 9.4588C9.2572 9.7898 9.919 9.8993 10.663 9.8993V8.3993ZM9.5 7.9395C9.5 7.844 9.5508 7.696 9.7556 7.5449C9.9601 7.3939 10.2785 7.2779 10.663 7.2779V5.7779C9.991 5.7779 9.3529 5.9779 8.865 6.3379C8.37743 6.6976 8 7.2554 8 7.9395H9.5ZM12 10.5609C12 10.7828 11.9211 10.9005 11.7526 11.0018C11.5385 11.1304 11.1712 11.2224 10.663 11.2224V12.7224C11.3075 12.7224 11.9837 12.6128 12.5249 12.2876C13.1117 11.9352 13.5 11.3471 13.5 10.5609H12ZM10.663 9.8993C11.3164 9.8993 11.6571 9.9999 11.8185 10.1052C11.9126 10.1665 12 10.2563 12 10.5609H13.5C13.5 9.8572 13.2396 9.2412 12.638 8.8488C12.1038 8.5004 11.401 8.3993 10.663 8.3993V9.8993ZM11.413 6.5279V5.75H9.913V6.5279H11.413ZM9.913 11.9724V12.75H11.413V11.9724H9.913ZM10.663 7.2779C11.1979 7.2779 11.5787 7.4974 11.7357 7.7039L12.9298 6.7961C12.4317 6.1408 11.5626 5.7779 10.663 5.7779V7.2779ZM10.663 11.2224C10.1296 11.2224 9.7151 11.0472 9.4972 10.8522L8.49687 11.97C9.0409 12.4568 9.8353 12.7224 10.663 12.7224V11.2224Z" fill="#141B34"/>
  <path d="M4 9H5" stroke="#141B34" stroke-width="1.5" stroke-linecap="round"/>
  <path d="M17 9H18" stroke="#141B34" stroke-width="1.5" stroke-linecap="round"/>
</svg>