<svg xmlns="http://www.w3.org/2000/svg" width="113" height="108" viewBox="0 0 113 108" fill="none">
  <g opacity="0.3">
    <path d="M42.3332 103C44.9105 103 46.9998 100.911 46.9998 98.3333C46.9998 95.756 44.9105 93.6666 42.3332 93.6666C39.7558 93.6666 37.6665 95.756 37.6665 98.3333C37.6665 100.911 39.7558 103 42.3332 103Z" stroke="black" stroke-width="9.33333" stroke-linecap="round" stroke-linejoin="round"/>
    <path d="M93.6667 103C96.244 103 98.3333 100.911 98.3333 98.3333C98.3333 95.756 96.244 93.6666 93.6667 93.6666C91.0893 93.6666 89 95.756 89 98.3333C89 100.911 91.0893 103 93.6667 103Z" stroke="black" stroke-width="9.33333" stroke-linecap="round" stroke-linejoin="round"/>
    <path d="M5 5H23.6667L36.1733 67.4867C36.6001 69.6352 37.7689 71.5651 39.4752 72.9387C41.1815 74.3123 43.3166 75.042 45.5067 75H90.8667C93.0567 75.042 95.1918 74.3123 96.8981 72.9387C98.6044 71.5651 99.7733 69.6352 100.2 67.4867L107.667 28.3333H28.3333" stroke="black" stroke-width="9.33333" stroke-linecap="round" stroke-linejoin="round"/>
  </g>
</svg>