<svg xmlns="http://www.w3.org/2000/svg" width="17" height="17" viewBox="0 0 17 17" fill="none">
  <path d="M8.5 16C12.6421 16 16 12.6421 16 8.5C16 4.35786 12.6421 1 8.5 1C4.35786 1 1 4.35786 1 8.5C1 12.6421 4.35786 16 8.5 16Z" stroke="#001019" stroke-width="0.862509"/>
  <path d="M9.06248 4.75C9.06248 4.43934 8.81063 4.1875 8.49998 4.1875C8.18933 4.1875 7.93748 4.43934 7.93748 4.75H9.06248ZM10.0227 9.22728C9.80303 9.0076 9.44693 9.0076 9.22726 9.22728C9.00758 9.44695 9.00758 9.80305 9.22726 10.0227L10.0227 9.22728ZM10.3523 11.1477C10.5719 11.3674 10.928 11.3674 11.1477 11.1477C11.3674 10.9281 11.3674 10.572 11.1477 10.3523L10.3523 11.1477ZM7.93748 4.75V7.375H9.06248V4.75H7.93748ZM9.22726 10.0227L10.3523 11.1477L11.1477 10.3523L10.0227 9.22728L9.22726 10.0227ZM9.06248 8.5C9.06248 8.81065 8.81063 9.0625 8.49998 9.0625V10.1875C9.43193 10.1875 10.1875 9.43195 10.1875 8.5H9.06248ZM8.49998 9.0625C8.18933 9.0625 7.93748 8.81065 7.93748 8.5H6.81248C6.81248 9.43195 7.56803 10.1875 8.49998 10.1875V9.0625ZM7.93748 8.5C7.93748 8.18935 8.18933 7.9375 8.49998 7.9375V6.8125C7.56803 6.8125 6.81248 7.56805 6.81248 8.5H7.93748ZM8.49998 7.9375C8.81063 7.9375 9.06248 8.18935 9.06248 8.5H10.1875C10.1875 7.56805 9.43193 6.8125 8.49998 6.8125V7.9375Z" fill="#001019"/>
</svg>