<svg xmlns="http://www.w3.org/2000/svg" width="17" height="17" viewBox="0 0 17 17" fill="none">
  <path d="M6.05138 2.52194L1.19926 6.76778C0.783166 7.13192 1.06215 7.77858 1.63532 7.77858C1.98549 7.77858 2.26937 8.04075 2.26937 8.36425V11.0672C2.26937 13.3925 2.26937 14.5552 3.05147 15.2776C3.83357 16 5.09235 16 7.60992 16H9.39008C11.9077 16 13.1664 16 13.9485 15.2776C14.7307 14.5552 14.7307 13.3925 14.7307 11.0672V8.36425C14.7307 8.04075 15.0145 7.77858 15.3647 7.77858C15.9378 7.77858 16.2168 7.13192 15.8008 6.76778L10.9486 2.52194C9.78908 1.50732 9.20933 1 8.5 1C7.79067 1 7.21092 1.50732 6.05138 2.52194Z" stroke="#001019" stroke-width="0.9375" stroke-linecap="round" stroke-linejoin="round"/>
  <path d="M8.5 11.833H8.507" stroke="#001019" stroke-width="1.25" stroke-linecap="round" stroke-linejoin="round"/>
</svg>