<svg xmlns="http://www.w3.org/2000/svg" width="18" height="18" viewBox="0 0 18 18" fill="none">
  <path opacity="0.5" d="M2.25254 7.8835C2.24516 7.14198 2.38577 6.40644 2.66614 5.71992C2.94651 5.03341 3.36101 4.40973 3.88537 3.88537C4.40973 3.36101 5.03341 2.94651 5.71992 2.66614C6.40644 2.38577 7.14198 2.24516 7.8835 2.25254C8.62502 2.24516 9.36056 2.38577 10.0471 2.66614C10.7336 2.94651 11.3573 3.36101 11.8816 3.88537C12.406 4.40973 12.8205 5.03341 13.1009 5.71992C13.3812 6.40644 13.5218 7.14198 13.5145 7.8835C13.5218 8.62502 13.3812 9.36056 13.1009 10.0471C12.8205 10.7336 12.406 11.3573 11.8816 11.8816C11.3573 12.406 10.7336 12.8205 10.0471 13.1009C9.36056 13.3812 8.62502 13.5218 7.8835 13.5145C7.14198 13.5218 6.40644 13.3812 5.71992 13.1009C5.03341 12.8205 4.40973 12.406 3.88537 11.8816C3.36101 11.3573 2.94651 10.7336 2.66614 10.0471C2.38577 9.36056 2.24516 8.62502 2.25254 7.8835ZM16.1047 17.6814C16.3145 17.887 16.597 18.0015 16.8907 18C17.1844 17.9985 17.4657 17.8812 17.6734 17.6734C17.8812 17.4657 17.9985 17.1844 18 16.8907C18.0015 16.597 17.887 16.3145 17.6814 16.1047L14.1902 12.6135C15.225 11.2549 15.7796 9.59126 15.7668 7.8835C15.7733 6.84644 15.5738 5.81843 15.1799 4.85908C14.786 3.89972 14.2055 3.02812 13.4722 2.29479C12.7389 1.56147 11.8673 0.981036 10.9079 0.587138C9.94856 0.19324 8.92055 -0.00627929 7.8835 0.000150604C6.84644 -0.00627929 5.81843 0.19324 4.85908 0.587138C3.89972 0.981036 3.02812 1.56147 2.29479 2.29479C1.56147 3.02812 0.981036 3.89972 0.587138 4.85908C0.19324 5.81843 -0.00627929 6.84644 0.000150604 7.8835C-0.00627929 8.92055 0.19324 9.94856 0.587138 10.9079C0.981036 11.8673 1.56147 12.7389 2.29479 13.4722C3.02812 14.2055 3.89972 14.786 4.85908 15.1799C5.81843 15.5738 6.84644 15.7733 7.8835 15.7668C9.59126 15.7796 11.2549 15.225 12.6135 14.1902L16.1047 17.6814Z" fill="black"/>
</svg>