<svg xmlns="http://www.w3.org/2000/svg" width="101" height="101" viewBox="0 0 101 101" fill="none">
  <g opacity="0.3" filter="url(#filter0_d_10_614)">
    <path d="M15.6381 43.7314C15.6 39.9002 16.3265 36.0999 17.7751 32.5529C19.2236 29.006 21.3652 25.7836 24.0744 23.0744C26.7836 20.3652 30.006 18.2236 33.5529 16.7751C37.0999 15.3265 40.9002 14.6 44.7314 14.6381C48.5626 14.6 52.3629 15.3265 55.9098 16.7751C59.4568 18.2236 62.6792 20.3652 65.3884 23.0744C68.0976 25.7836 70.2392 29.006 71.6877 32.5529C73.1363 36.0999 73.8628 39.9002 73.8247 43.7314C73.8628 47.5626 73.1363 51.3629 71.6877 54.9098C70.2392 58.4568 68.0976 61.6792 65.3884 64.3884C62.6792 67.0976 59.4568 69.2392 55.9098 70.6877C52.3629 72.1363 48.5626 72.8628 44.7314 72.8247C40.9002 72.8628 37.0999 72.1363 33.5529 70.6877C30.006 69.2392 26.7836 67.0976 24.0744 64.3884C21.3652 61.6792 19.2236 58.4568 17.7751 54.9098C16.3265 51.3629 15.6 47.5626 15.6381 43.7314ZM87.2076 94.3537C88.2916 95.416 89.7509 96.0076 91.2686 95.9999C92.7863 95.9923 94.2396 95.386 95.3128 94.3128C96.386 93.2396 96.9923 91.7863 96.9999 90.2686C97.0076 88.7509 96.416 87.2916 95.3537 86.2076L77.3159 68.1698C82.6626 61.1505 85.5278 52.5548 85.462 43.7314C85.4952 38.3733 84.4644 33.0619 82.4293 28.1052C80.3941 23.1486 77.3952 18.6453 73.6064 14.8564C69.8175 11.0676 65.3142 8.06868 60.3575 6.03355C55.4009 3.99841 50.0895 2.96756 44.7314 3.00078C39.3733 2.96756 34.0619 3.99841 29.1052 6.03355C24.1486 8.06868 19.6453 11.0676 15.8564 14.8564C12.0676 18.6453 9.06868 23.1486 7.03355 28.1052C4.99841 33.0619 3.96756 38.3733 4.00078 43.7314C3.96756 49.0895 4.99841 54.4009 7.03355 59.3575C9.06868 64.3142 12.0676 68.8175 15.8564 72.6064C19.6453 76.3952 24.1486 79.3941 29.1052 81.4293C34.0619 83.4644 39.3733 84.4952 44.7314 84.462C53.5548 84.5278 62.1505 81.6626 69.1698 76.3159L87.2076 94.3537Z" fill="black"/>
  </g>
  <defs>
    <filter id="filter0_d_10_614" x="0" y="0" width="101" height="101" filterUnits="userSpaceOnUse" color-interpolation-filters="sRGB">
      <feFlood flood-opacity="0" result="BackgroundImageFix"/>
      <feColorMatrix in="SourceAlpha" type="matrix" values="0 0 0 0 0 0 0 0 0 0 0 0 0 0 0 0 0 0 127 0" result="hardAlpha"/>
      <feOffset dy="1"/>
      <feGaussianBlur stdDeviation="2"/>
      <feComposite in2="hardAlpha" operator="out"/>
      <feColorMatrix type="matrix" values="0 0 0 0 0 0 0 0 0 0 0 0 0 0 0 0 0 0 0.25 0"/>
      <feBlend mode="normal" in2="BackgroundImageFix" result="effect1_dropShadow_10_614"/>
      <feBlend mode="normal" in="SourceGraphic" in2="effect1_dropShadow_10_614" result="shape"/>
    </filter>
  </defs>
</svg>