<svg xmlns="http://www.w3.org/2000/svg" width="16" height="18" viewBox="0 0 16 18" fill="none">
  <path d="M9.49416 16.4936C9.14728 16.8184 8.68352 17 8.20088 17C7.71824 17 7.25456 16.8184 6.9076 16.4936C3.73042 13.5008 -0.527392 10.1575 1.54902 5.30373C2.6717 2.67933 5.36667 1 8.20088 1C11.0351 1 13.7301 2.67933 14.8528 5.30373C16.9266 10.1514 12.6792 13.5111 9.49416 16.4936Z" stroke="#001019" stroke-width="0.9"/>
  <path d="M10.9999 8.19941C10.9999 9.74581 9.7463 10.9994 8.1999 10.9994C6.6535 10.9994 5.3999 9.74581 5.3999 8.19941C5.3999 6.65301 6.6535 5.39941 8.1999 5.39941C9.7463 5.39941 10.9999 6.65301 10.9999 8.19941Z" stroke="#001019" stroke-width="0.9"/>
</svg>